<svg xmlns="http://www.w3.org/2000/svg" width="35.065" height="35.065" viewBox="0 0 35.065 35.065">
  <path id="Icon_ionic-logo-facebook" data-name="Icon ionic-logo-facebook" d="M37.629,4.5H6.436A1.937,1.937,0,0,0,4.5,6.436V37.629a1.937,1.937,0,0,0,1.936,1.936h15.6V25.685H17.841V20.571h4.191v-3.78c0-4.529,3.141-6.995,7.186-6.995,1.936,0,4.018.146,4.5.21v4.73H30.5c-2.2,0-2.621,1.041-2.621,2.575v3.26h5.241l-.685,5.114H27.876v13.88h9.752a1.937,1.937,0,0,0,1.936-1.936V6.436A1.937,1.937,0,0,0,37.629,4.5Z" transform="translate(-4.5 -4.5)" fill="#776fc4"/>
</svg>
