<svg xmlns="http://www.w3.org/2000/svg" width="50" height="50" viewBox="0 0 50 50">
  <g id="Group_52" data-name="Group 52" transform="translate(-100 -965)">
    <circle id="Ellipse_1" data-name="Ellipse 1" cx="25" cy="25" r="25" transform="translate(100 965)" fill="#f6f7f9"/>
    <g id="Icon_ionic-ios-chatbubbles" data-name="Icon ionic-ios-chatbubbles" transform="translate(104.55 975)">
      <path id="Path_1" data-name="Path 1" d="M30.3,22.542a1.7,1.7,0,0,1,.232-.858,2.368,2.368,0,0,1,.148-.218,11.393,11.393,0,0,0,1.941-6.349A11.961,11.961,0,0,0,20.412,3.375,12.129,12.129,0,0,0,8.438,12.72a11.3,11.3,0,0,0-.26,2.4A11.927,11.927,0,0,0,20.2,27.014a14.48,14.48,0,0,0,3.319-.541c.795-.218,1.582-.506,1.786-.584a1.859,1.859,0,0,1,.654-.12,1.828,1.828,0,0,1,.71.141l3.987,1.413a.951.951,0,0,0,.274.07.56.56,0,0,0,.563-.562.9.9,0,0,0-.035-.19Z" fill="#56b4ff"/>
    </g>
  </g>
</svg>
