<svg xmlns="http://www.w3.org/2000/svg" width="35.065" height="35.065" viewBox="0 0 35.065 35.065">
  <g id="Icon_ionic-logo-instagram" data-name="Icon ionic-logo-instagram" transform="translate(0)">
    <path id="Path_2138" data-name="Path 2138" d="M29.338,7.422a7.327,7.327,0,0,1,7.305,7.305v14.61a7.327,7.327,0,0,1-7.305,7.305H14.727a7.327,7.327,0,0,1-7.305-7.305V14.727a7.327,7.327,0,0,1,7.305-7.305h14.61m0-2.922H14.727A10.257,10.257,0,0,0,4.5,14.727v14.61A10.257,10.257,0,0,0,14.727,39.565h14.61A10.257,10.257,0,0,0,39.565,29.338V14.727A10.257,10.257,0,0,0,29.338,4.5Z" transform="translate(-4.5 -4.5)" fill="#776fc4"/>
    <path id="Path_2139" data-name="Path 2139" d="M25.817,13.383a2.192,2.192,0,1,1,2.192-2.192A2.186,2.186,0,0,1,25.817,13.383Z" transform="translate(1.213 -3.156)" fill="#776fc4"/>
    <path id="Path_2140" data-name="Path 2140" d="M20.016,14.172a5.844,5.844,0,1,1-5.844,5.844,5.85,5.85,0,0,1,5.844-5.844m0-2.922a8.766,8.766,0,1,0,8.766,8.766,8.768,8.768,0,0,0-8.766-8.766Z" transform="translate(-2.483 -2.484)" fill="#776fc4"/>
  </g>
</svg>
