<svg xmlns="http://www.w3.org/2000/svg" width="35.065" height="35.065" viewBox="0 0 35.065 35.065">
  <path id="Icon_ionic-logo-linkedin" data-name="Icon ionic-logo-linkedin" d="M36.761,4.5H7.5a2.861,2.861,0,0,0-3,2.731V36.56a3.085,3.085,0,0,0,3,3.005H36.751a2.929,2.929,0,0,0,2.813-3.005V7.231A2.689,2.689,0,0,0,36.761,4.5ZM15.369,33.728H10.346V18.109h5.024ZM13.031,15.735h-.037a2.578,2.578,0,0,1-2.649-2.694,2.594,2.594,0,0,1,2.713-2.694,2.588,2.588,0,0,1,2.685,2.694A2.594,2.594,0,0,1,13.031,15.735Zm20.7,17.994H28.7v-8.54c0-2.046-.731-3.443-2.548-3.443A2.749,2.749,0,0,0,23.581,23.6a3.382,3.382,0,0,0-.174,1.233v8.9H18.383V18.109h5.024v2.174a5.085,5.085,0,0,1,4.53-2.539c3.3,0,5.791,2.174,5.791,6.86v9.125Z" transform="translate(-4.5 -4.5)" fill="#776fc4"/>
</svg>
