<svg xmlns="http://www.w3.org/2000/svg" width="60" height="60" viewBox="0 0 60 60">
  <g id="Group_54" data-name="Group 54" transform="translate(-1163 -505)">
    <circle id="Ellipse_18" data-name="Ellipse 18" cx="30" cy="30" r="30" transform="translate(1163 505)" fill="#fff"/>
    <path id="Icon_ionic-ios-call" data-name="Icon ionic-ios-call" d="M26.8,22.492a19.3,19.3,0,0,0-4.031-2.7c-1.208-.58-1.651-.568-2.506.048-.712.514-1.172.993-1.992.813s-2.434-1.4-4-2.961-2.787-3.182-2.961-4,.305-1.28.813-1.992c.616-.855.634-1.3.048-2.506a18.917,18.917,0,0,0-2.7-4.031C8.6,4.285,8.4,4.476,7.914,4.65a8.883,8.883,0,0,0-1.429.76A4.312,4.312,0,0,0,4.768,7.222c-.341.736-.736,2.105,1.274,5.682a31.706,31.706,0,0,0,5.574,7.435h0l.006.006.006.006h0a31.829,31.829,0,0,0,7.435,5.574c3.577,2.01,4.946,1.615,5.682,1.274a4.239,4.239,0,0,0,1.812-1.717,8.883,8.883,0,0,0,.76-1.429C27.49,23.568,27.687,23.371,26.8,22.492Z" transform="translate(1177.51 519.497)" fill="#673ab7"/>
  </g>
</svg>
