<svg xmlns="http://www.w3.org/2000/svg" width="28.679" height="26.63" viewBox="0 0 28.679 26.63">
  <path id="Icon_ionic-ios-star" data-name="Icon ionic-ios-star" d="M29.841,12.593H20.424l-2.862-8.54a1.037,1.037,0,0,0-1.946,0l-2.862,8.54H3.274A1.027,1.027,0,0,0,2.25,13.618a.753.753,0,0,0,.019.173.984.984,0,0,0,.429.723l7.74,5.454L7.467,28.6a1.027,1.027,0,0,0,.352,1.152.991.991,0,0,0,.576.25,1.255,1.255,0,0,0,.64-.23l7.554-5.384,7.554,5.384a1.2,1.2,0,0,0,.64.23.92.92,0,0,0,.57-.25,1.015,1.015,0,0,0,.352-1.152l-2.97-8.636,7.676-5.505.186-.16a1.074,1.074,0,0,0,.333-.685A1.084,1.084,0,0,0,29.841,12.593Z" transform="translate(-2.25 -3.375)" fill="#776fc4"/>
</svg>
