<svg xmlns="http://www.w3.org/2000/svg" xmlns:xlink="http://www.w3.org/1999/xlink" width="50" height="50" viewBox="0 0 50 50">
  <defs>
    <filter id="Ellipse_40" x="0" y="0" width="50" height="50" filterUnits="userSpaceOnUse">
      <feOffset dy="3" input="SourceAlpha"/>
      <feGaussianBlur stdDeviation="3" result="blur"/>
      <feFlood flood-opacity="0.161"/>
      <feComposite operator="in" in2="blur"/>
      <feComposite in="SourceGraphic"/>
    </filter>
  </defs>
  <g id="Group_937" data-name="Group 937" transform="translate(-615 -652)">
    <g transform="matrix(1, 0, 0, 1, 615, 652)" filter="url(#Ellipse_40)">
      <circle id="Ellipse_40-2" data-name="Ellipse 40" cx="16" cy="16" r="16" transform="translate(9 6)" fill="#fff"/>
    </g>
    <path id="Icon_ionic-ios-close" data-name="Icon ionic-ios-close" d="M19.323,17.785l4.641-4.641a1.088,1.088,0,0,0-1.538-1.538l-4.641,4.641-4.641-4.641a1.088,1.088,0,1,0-1.538,1.538l4.641,4.641-4.641,4.641a1.088,1.088,0,0,0,1.538,1.538l4.641-4.641,4.641,4.641a1.088,1.088,0,0,0,1.538-1.538Z" transform="translate(622.431 656.711)" fill="#776fc4"/>
  </g>
</svg>
