<svg xmlns="http://www.w3.org/2000/svg" width="24.161" height="22.435" viewBox="0 0 24.161 22.435">
  <path id="Icon_ionic-ios-star" data-name="Icon ionic-ios-star" d="M25.494,11.141H17.561L15.15,3.947a.874.874,0,0,0-1.639,0L11.1,11.141H3.113A.865.865,0,0,0,2.25,12a.634.634,0,0,0,.016.146.829.829,0,0,0,.361.609l6.52,4.595-2.5,7.275a.865.865,0,0,0,.3.971.834.834,0,0,0,.485.21,1.057,1.057,0,0,0,.539-.194L14.33,21.08l6.364,4.536a1.011,1.011,0,0,0,.539.194.775.775,0,0,0,.48-.21.855.855,0,0,0,.3-.971l-2.5-7.275,6.466-4.638.156-.135a.9.9,0,0,0,.28-.577A.913.913,0,0,0,25.494,11.141Z" transform="translate(-2.25 -3.375)" fill="#fccf39"/>
</svg>
