<svg xmlns="http://www.w3.org/2000/svg" width="82.513" height="76.619" viewBox="0 0 82.513 76.619">
  <path id="Icon_ionic-ios-star" data-name="Icon ionic-ios-star" d="M81.632,29.9H54.539L46.306,5.327a2.983,2.983,0,0,0-5.6,0L32.474,29.9H5.2A2.956,2.956,0,0,0,2.25,32.844a2.166,2.166,0,0,0,.055.5,2.831,2.831,0,0,0,1.234,2.081L25.807,51.115,17.261,75.961a2.955,2.955,0,0,0,1.013,3.315,2.85,2.85,0,0,0,1.658.718,3.611,3.611,0,0,0,1.842-.663l21.733-15.49L65.24,79.331a3.451,3.451,0,0,0,1.842.663,2.646,2.646,0,0,0,1.639-.718,2.919,2.919,0,0,0,1.013-3.315L61.188,51.115l22.083-15.84.534-.46a3.09,3.09,0,0,0,.958-1.971A3.119,3.119,0,0,0,81.632,29.9Z" transform="translate(-2.25 -3.375)" fill="#776fc4"/>
</svg>
