<svg xmlns="http://www.w3.org/2000/svg" width="43.091" height="35.065" viewBox="0 0 43.091 35.065">
  <path id="Icon_ionic-logo-twitter" data-name="Icon ionic-logo-twitter" d="M44.5,8.655a17.873,17.873,0,0,1-5.077,1.4,8.872,8.872,0,0,0,3.89-4.894A17.567,17.567,0,0,1,37.7,7.3a8.838,8.838,0,0,0-15.3,6.045,8.655,8.655,0,0,0,.228,2.018A25.054,25.054,0,0,1,4.408,6.116,8.858,8.858,0,0,0,7.157,17.932a8.635,8.635,0,0,1-4.018-1.1v.11a8.848,8.848,0,0,0,7.1,8.675,8.9,8.9,0,0,1-2.329.31,8.34,8.34,0,0,1-1.662-.164A8.855,8.855,0,0,0,14.508,31.9a17.725,17.725,0,0,1-10.985,3.79,17.921,17.921,0,0,1-2.109-.128,24.711,24.711,0,0,0,13.533,4c16.281,0,25.175-13.487,25.175-25.185,0-.384-.009-.767-.027-1.141A18,18,0,0,0,44.5,8.655Z" transform="translate(-1.413 -4.5)" fill="#776fc4"/>
</svg>
